<svg xmlns="http://www.w3.org/2000/svg" viewBox="0 0 1440 320"><path fill="rgb(108 72 72)" fill-opacity="1" d="M0,32L18.5,32C36.9,32,74,32,111,42.7C147.7,53,185,75,222,96C258.5,117,295,139,332,128C369.2,117,406,75,443,74.7C480,75,517,117,554,149.3C590.8,181,628,203,665,218.7C701.5,235,738,245,775,256C812.3,267,849,277,886,256C923.1,235,960,181,997,138.7C1033.8,96,1071,64,1108,53.3C1144.6,43,1182,53,1218,74.7C1255.4,96,1292,128,1329,144C1366.2,160,1403,160,1422,160L1440,160L1440,0L1421.5,0C1403.1,0,1366,0,1329,0C1292.3,0,1255,0,1218,0C1181.5,0,1145,0,1108,0C1070.8,0,1034,0,997,0C960,0,923,0,886,0C849.2,0,812,0,775,0C738.5,0,702,0,665,0C627.7,0,591,0,554,0C516.9,0,480,0,443,0C406.2,0,369,0,332,0C295.4,0,258,0,222,0C184.6,0,148,0,111,0C73.8,0,37,0,18,0L0,0Z"></path></svg>